<?xml version="1.0" encoding="utf-8"?>
<!-- Generator: Adobe Illustrator 19.2.1, SVG Export Plug-In . SVG Version: 6.00 Build 0)  -->
<svg version="1.1" id="Layer_1" xmlns="http://www.w3.org/2000/svg" xmlns:xlink="http://www.w3.org/1999/xlink" x="0px" y="0px"
	 viewBox="0 0 29.2 30" style="enable-background:new 0 0 29.2 30;" xml:space="preserve">
<style type="text/css">
	.st0{fill:#323232;}
</style>
<path class="st0" d="M8.8,24c-1.6,0-2.9,1.4-2.9,3s1.3,3,2.9,3c1.6,0,2.9-1.4,2.9-3S10.4,24,8.8,24z"/>
<path class="st0" d="M23.4,24c-1.6,0-2.9,1.4-2.9,3s1.3,3,2.9,3c1.6,0,2.9-1.4,2.9-3S25,24,23.4,24z"/>
<path class="st0" d="M10.3,16.5h10.8c1.2,0,2-0.6,2.5-1.5l5.3-9.8c0.3-0.3,0.3-0.4,0.3-0.8c0-0.9-0.6-1.5-1.5-1.5H6.1L4.8,0H0v3h2.9
	l5.3,11.4l-2,3.6c-0.1,0.5-0.3,1-0.3,1.5c0,1.6,1.3,3,2.9,3h17.5v-3h-17c-0.1,0-0.3-0.1-0.3-0.3V19L10.3,16.5z"/>
</svg>
