<?xml version="1.0" encoding="utf-8"?>
<!-- Generator: Adobe Illustrator 19.2.1, SVG Export Plug-In . SVG Version: 6.00 Build 0)  -->
<svg version="1.1" id="Layer_1" xmlns="http://www.w3.org/2000/svg" xmlns:xlink="http://www.w3.org/1999/xlink" x="0px" y="0px"
	 viewBox="0 0 20 20" style="enable-background:new 0 0 20 20;" xml:space="preserve">
<path id="_x2B_" d="M8,8H0.4C0.2,8,0,8.2,0,8.4v3.2C0,11.8,0.2,12,0.4,12H8v7.6C8,19.8,8.2,20,8.4,20h3.2c0.2,0,0.4-0.2,0.4-0.4V12
	h7.6c0.2,0,0.4-0.2,0.4-0.4V8.4C20,8.2,19.8,8,19.6,8H12V0.4C12,0.2,11.8,0,11.6,0H8.4C8.2,0,8,0.2,8,0.4V8z"/>
</svg>
