<?xml version="1.0" encoding="UTF-8" standalone="no"?>
<svg width="128px" height="57px" viewBox="0 0 128 57" version="1.1" xmlns="http://www.w3.org/2000/svg" xmlns:xlink="http://www.w3.org/1999/xlink">
    <!-- Generator: Sketch 40.2 (33826) - http://www.bohemiancoding.com/sketch -->
    <title>Logo</title>
    <desc>Created with Sketch.</desc>
    <defs>
        <polygon id="path-1" points="127.683899 56.7790157 0 56.7790157 0 28.459266 0 0.13951623 127.683899 0.13951623"></polygon>
    </defs>
    <g id="Page-1" stroke="none" stroke-width="1" fill="none" fill-rule="evenodd">
        <g id="Qantas-merchandise-listing-page" transform="translate(-146.000000, -16.000000)">
            <g id="Header" transform="translate(146.000000, 16.000000)">
                <g id="Logo">
                    <mask id="mask-2" fill="white">
                        <use xlink:href="#path-1"></use>
                    </mask>
                    <g id="Clip-3"></g>
                    <path d="M122.659479,24.3630785 C121.519542,23.0778932 120.50184,21.8236105 120.50184,20.4475351 C120.50184,18.6729068 121.334589,17.7853654 122.783544,17.7853654 C124.231584,17.7853654 125.094549,18.8256021 125.341306,20.9365236 L127.560291,20.8451791 C127.375338,17.0509738 125.341306,15.7657885 122.906236,15.7657885 C119.762483,15.7657885 118.098359,17.9380607 118.098359,20.6306785 C118.098359,22.6193529 119.269884,24.3330848 120.77927,26.0459079 L123.337489,28.9525717 C124.540146,30.3291016 125.279502,31.7369885 125.279502,33.1130639 C125.279502,34.5823016 124.693968,36.2037801 122.844432,36.2037801 C121.087831,36.2037801 120.194194,34.7040942 119.97811,32.7154199 L117.635517,32.7772251 C117.882274,36.2646764 119.855418,38.2224482 122.844432,38.2224482 C125.92684,38.2224482 127.683899,36.0201822 127.683899,32.9603686 C127.683899,30.6658492 126.666196,28.8603183 124.940726,26.9329948 L122.659479,24.3630785 L122.659479,24.3630785 Z M111.728447,37.9166031 L114.224863,37.9166031 L109.817565,16.0411853 L106.488859,16.0411853 L101.989084,37.9166031 L104.331677,37.9166031 L105.564091,31.3693382 L110.433772,31.3693382 L111.728447,37.9166031 L111.728447,37.9166031 Z M110.033192,29.3506702 L105.964671,29.3506702 L107.968487,18.8864984 L108.060506,18.8864984 L110.033192,29.3506702 L110.033192,29.3506702 Z M95.8686772,18.213912 L100.029217,18.213912 L100.029217,16.1025361 L89.1805907,16.1025361 L89.1805907,18.213912 L93.4033924,18.213912 L93.4033924,37.9166031 L95.8686772,37.9166031 L95.8686772,18.213912 L95.8686772,18.213912 Z M82.5012025,37.9166031 L84.8126646,37.9166031 L84.8126646,16.1025361 L82.6248101,16.1025361 L82.6248101,31.5838387 L82.5630063,31.5838387 L76.8921646,16.1025361 L74.2107954,16.1025361 L74.2107954,37.9166031 L76.3986498,37.9166031 L76.3986498,21.1201215 L76.4915844,21.1201215 L82.5012025,37.9166031 L82.5012025,37.9166031 Z M67.0827574,37.9166031 L69.579173,37.9166031 L65.1718755,16.0411853 L61.8431688,16.0411853 L57.3433945,37.9166031 L59.6855295,37.9166031 L60.9188586,31.3693382 L65.7880823,31.3693382 L67.0827574,37.9166031 L67.0827574,37.9166031 Z M65.3870443,29.3506702 L61.3194388,29.3506702 L63.3227975,18.8864984 L63.4152743,18.8864984 L65.3870443,29.3506702 L65.3870443,29.3506702 Z M53.4602848,37.566222 L51.6707215,35.7897759 C52.09877,35.0140293 52.3409494,34.0542304 52.3409494,32.9012901 L52.3409494,20.6615812 C52.3409494,17.3268251 50.0299451,15.7657885 47.039557,15.7657885 C43.956692,15.7657885 41.64523,17.5713194 41.64523,20.936978 L41.64523,33.0544398 C41.64523,36.5123518 43.7717384,38.2256293 46.9470802,38.2256293 C48.0444409,38.2256293 49.0406266,38.0006764 49.8738333,37.5544063 L51.6725527,39.3399414 L53.4602848,37.566222 L53.4602848,37.566222 Z M49.813403,33.0544398 C49.813403,34.6454702 48.9815696,35.9920063 47.039557,35.9920063 C45.1282173,35.9920063 44.2029916,34.6763728 44.2029916,33.0853424 L44.2029916,20.7838283 C44.2029916,19.1932524 45.0975443,17.9380607 46.9777532,17.9380607 C48.796616,17.9380607 49.813403,19.0401026 49.813403,20.6929382 L49.813403,33.0544398 L49.813403,33.0544398 Z" id="Fill-2" fill="#252829" mask="url(#mask-2)"></path>
                    <path d="M24.0261118,48.3185152 C25.0428987,46.4948063 25.6092046,44.2293717 25.6092046,41.4967623 L25.6092046,12.4801131 C25.6092046,4.87216126 20.6703945,0.595784293 13.9136371,0.13951623 L13.9136371,5.36523979 C17.6845844,5.8101466 19.482846,8.62682932 19.482846,12.1160984 L19.482846,41.5658387 C19.482846,45.0214785 17.6648987,47.931778 13.9136371,48.448488 L13.9136371,53.8473571 C16.0694451,53.7396524 17.9981814,53.2779309 19.6412468,52.4676461 L24.0132932,56.8062827 L28.2965253,52.5539916 L24.0261118,48.3185152 L24.0261118,48.3185152 Z M11.6960253,53.8473571 L11.6960253,48.448488 C7.94476371,47.931778 6.12681646,45.0214785 6.12681646,41.5658387 L6.12681646,12.1160984 C6.12681646,8.62682932 7.92507806,5.8101466 11.6960253,5.36523979 L11.6960253,0.139970681 C4.93926793,0.595784293 0,4.87216126 0,12.4801131 L0,41.4967623 C0,49.4096503 4.65405485,53.4956126 11.6960253,53.8473571 L11.6960253,53.8473571 Z" id="Fill-4" fill="#E0001B" mask="url(#mask-2)"></path>
                </g>
            </g>
        </g>
    </g>
</svg>