<?xml version="1.0" encoding="UTF-8" standalone="no"?>
<svg width="175px" height="40px" viewBox="0 0 175 40" version="1.1" xmlns="http://www.w3.org/2000/svg" xmlns:xlink="http://www.w3.org/1999/xlink">
    <!-- Generator: Sketch 40.2 (33826) - http://www.bohemiancoding.com/sketch -->
    <title>Logo</title>
    <desc>Created with Sketch.</desc>
    <defs></defs>
    <g id="Page-1" stroke="none" stroke-width="1" fill="none" fill-rule="evenodd">
        <g id="Qantas-merchandise-listing-page" transform="translate(-147.000000, -1867.000000)">
            <g id="Footer" transform="translate(0.000000, 1500.000000)">
                <g id="Logo" transform="translate(147.000000, 367.000000)">
                    <path d="M152.138131,16.5028238 C150.299077,16.2527019 142.279852,14.4011835 135.585192,21.4862589 C130.118994,27.2709058 123.6709,33.8886076 123.6709,33.8886076 L131.010612,33.8886076 C131.010612,33.8886076 131.902231,32.9312621 133.726723,30.9313141 L141.358626,30.9313141 L140.697072,33.8896348 L148.272672,33.8896348 L152.138131,16.5028238 L152.138131,16.5028238 Z M142.338581,26.543652 L137.709156,26.543652 C137.939219,26.2873669 138.176564,26.0300546 138.415364,25.7583616 C142.956938,20.6172522 143.729642,20.9875559 143.729642,20.9875559 L142.338581,26.543652 L142.338581,26.543652 Z" id="Fill-1" fill="#FFFFFF"></path>
                    <path d="M84.1382837,16.5028238 C82.3006861,16.2527019 74.2795192,14.4011835 67.5868005,21.4862589 C62.1215736,27.2709058 55.6720235,33.8886076 55.6720235,33.8886076 L63.0107651,33.8886076 C63.0107651,33.8886076 63.9033541,32.9312621 65.7283321,30.9313141 L73.3592643,30.9313141 L72.6996512,33.8896348 L80.2728248,33.8896348 L84.1382837,16.5028238 L84.1382837,16.5028238 Z M74.3382486,26.543652 L69.7102789,26.543652 C69.9403427,26.2873669 70.1786576,26.0300546 70.4184287,25.7583616 C74.9590323,20.6172522 75.7283382,20.9875559 75.7283382,20.9875559 L74.3382486,26.543652 L74.3382486,26.543652 Z" id="Fill-2" fill="#FFFFFF"></path>
                    <path d="M110.792671,16.3328231 C107.688752,16.3328231 105.542947,17.5890822 104.177611,20.0666758 L101.534305,25.0110775 L97.8338703,16.3312823 L96.4039806,16.3328231 C93.2990911,16.3328231 90.1456649,18.6424704 88.6551044,21.3640227 L81.7017438,33.8901484 L88.8769169,33.8901484 L93.5878842,25.3125591 L97.2174549,33.8901484 L103.651473,33.8901484 L113.269496,16.3312823 L110.792671,16.3328231" id="Fill-3" fill="#FFFFFF"></path>
                    <path d="M52.9151418,15.9563563 C43.8407296,15.9563563 38.0973877,20.8817548 35.6637601,25.3582693 C33.3301179,29.6411575 35.58416,34.8798505 44.3411424,34.4622958 C44.3411424,34.4648638 46.1180692,36.8905841 49.7568619,37.0225786 C53.3980814,37.1561139 55.6569771,33.9029883 55.6569771,33.9029883 C55.6569771,33.9029883 54.415895,34.3477636 53.0714298,34.1767357 C51.3886641,33.9661608 50.8120487,32.9584828 50.8183585,32.9554012 C55.6365918,30.833217 58.3750296,28.1676468 59.902478,25.3582693 C62.3414447,20.8817548 61.9866417,15.9563563 52.9151418,15.9563563 M51.1571443,25.2853385 C49.3219735,28.1994898 47.2475171,30.3042117 44.6498355,30.1619453 C41.5226191,29.9914309 42.4477277,27.5590339 44.0615713,25.2098396 C46.0074057,22.3752959 48.4187065,19.9393037 51.0324051,20.0666758 C54.1635044,20.2166462 52.9942565,22.3701599 51.1571443,25.2853385" id="Fill-4" fill="#FFFFFF"></path>
                    <path d="M119.209411,16.3307687 C116.065207,16.3307687 113.833006,17.793494 112.86373,19.5977614 L112.05608,21.0604867 L119.206014,21.0604867 L112.170626,33.8896348 L119.998132,33.8896348 L127.020414,21.0784626 L129.198739,21.0178581 C132.024058,21.0178581 134.573688,19.5566737 135.54345,17.7524062 L136.322949,16.3317959 L119.209411,16.3307687" id="Fill-5" fill="#FFFFFF"></path>
                    <path d="M164.216962,21.8889192 C169.84333,23.552461 172.328407,25.032135 172.01486,27.7228715 C171.547452,31.7499882 166.031747,34.4304528 159.238558,34.3010263 C152.447795,34.1700589 149.292913,31.7006829 149.292913,31.7006829 L153.492789,28.0413018 C153.492789,28.0413018 156.447215,29.6966261 160.477698,29.7746929 C163.056936,29.8234846 163.369027,29.1691616 163.422417,28.9822121 C163.582588,28.4280406 162.868614,28.2020578 161.071302,27.5744418 C157.496092,26.3222915 154.009219,25.0989026 154.407705,21.6603684 C154.884335,17.5634024 161.155755,15.6923672 166.596228,15.8449056 C170.36607,15.9517339 174.153385,17.405728 174.153385,17.405728 C172.648263,20.2608156 170.069511,20.6095482 169.12062,20.5915723 C167.832457,20.5669196 166.786007,20.2608156 164.82998,20.2125375 C163.231668,20.1729905 162.716209,20.8781596 162.981704,21.2772248 C163.18216,21.5761384 163.467071,21.6655044 164.216962,21.8889192" id="Fill-6" fill="#FFFFFF"></path>
                    <polyline id="Fill-7" fill="#E4000C" points="0 40 41 40 0 0 0 40"></polyline>
                    <path d="M0.227151524,10.3370877 C0.236373488,10.6447325 0.286851605,11.3041915 0.395088335,11.6565193 C2.03077346,17.0831888 11.3114664,14.9389199 17.3567062,24.0814663 C17.3615599,24.0814663 18.5041126,24.2165424 19.2802137,22.742518 C19.2802137,22.742518 17.6770481,22.6115507 17.577548,21.3321797 C17.577548,21.3321797 20.8615378,22.0265633 22.8360087,23.7188666 C22.8360087,23.7188666 22.8617331,24.4753954 20.5654642,24.488749 C20.1072782,24.520592 19.9126462,24.5519214 19.1865379,25.3084503 C19.1865379,25.3084503 17.3460282,27.4244714 15.4768817,27.390574 C14.9085176,27.3690029 14.4726585,27.1404521 14.4440218,26.9612066 C14.4440218,26.9612066 14.3673339,26.7064623 14.7949418,26.7989098 C14.7949418,26.7989098 15.7962529,27.0808748 16.2660877,26.6253139 C16.2660877,26.6253139 15.8389652,25.9781813 15.0973251,25.984858 C14.6493319,25.9571238 14.1785263,26.1168526 13.8819674,26.5451927 C13.8819674,26.5451927 12.3991727,28.5204881 16.6301126,30.6000438 C22.7806769,33.4469139 26.2034815,37.641977 25.7093784,38.7318306 C25.7156882,38.7359393 25.7093784,38.7318306 25.7093784,38.7318306 C25.1104361,38.2762697 20.1116465,31.6893838 11.4934788,30.9343957 C11.4934788,30.9343957 11.5391033,30.7957244 11.5725936,30.6072342 C12.4734338,26.0470033 10.4669287,22.9592561 8.19929637,21.1971036 C5.90885183,19.2428657 1.53861182,17.6260612 0.227151524,13.2918132 L0.227151524,10.3370877" id="Fill-8" fill="#FFFFFF"></path>
                </g>
            </g>
        </g>
    </g>
</svg>